<svg width="1097" height="384" viewBox="0 0 1097 384" fill="none" xmlns="http://www.w3.org/2000/svg">
<path d="M44.0658 121.732V41.6385H100.749C126.287 41.6385 141.329 56.6797 141.329 81.8745C141.329 107.069 126.287 121.77 100.749 121.77H44.0658V121.732ZM12.2384 0.682617C3.48586 0.682617 0 3.86513 0 12.5791V237.173C0 245.925 3.48586 249.07 12.2384 249.07H32.1684C40.921 249.07 44.0658 245.925 44.0658 237.173V162.65H104.955C155.689 162.65 187.517 132.226 187.517 81.8366C187.517 31.4848 155.689 0.682617 104.955 0.682617H12.2384Z" fill="#19093B"/>
<path d="M293.04 62.6265C266.82 63.3084 245.109 66.8319 227.983 73.1212C216.806 77.6676 214.343 81.8731 214.343 93.0497V238.233C214.343 246.265 217.147 249.069 225.179 249.069H244.427C252.46 249.069 254.923 246.265 254.923 238.233V108.091C254.923 105.628 255.984 104.226 258.409 103.885C267.502 101.082 278.68 99.68 291.638 99.68H304.217C312.25 99.68 315.054 96.8763 315.054 88.8443V73.4622C315.054 65.0512 312.25 62.6265 304.217 62.6265H293.04Z" fill="#19093B"/>
<path d="M348.889 67.8557C340.856 67.8557 338.393 70.3183 338.393 78.3504V238.196C338.393 246.228 340.856 249.031 348.889 249.031H368.137C376.17 249.031 378.973 246.228 378.973 238.196V78.3504C378.973 70.3183 376.17 67.8557 368.137 67.8557H348.889ZM357.3 0C340.856 0 335.969 5.2663 335.969 20.9894V24.134C335.969 40.577 341.576 45.4644 357.3 45.4644H359.763C376.207 45.4644 381.095 40.577 381.095 24.134V20.9894C381.095 5.2663 376.207 0 359.763 0H357.3Z" fill="#19093B"/>
<path d="M432.398 74.5238C421.221 79.0702 418.758 83.2757 418.758 94.4523V238.234C418.758 246.266 421.562 249.069 429.595 249.069H448.843C456.875 249.069 459.338 246.266 459.338 238.234V107.751C459.338 106.008 460.02 104.947 461.801 104.265C472.978 101.12 484.194 99.7186 495.371 99.7186C520.909 99.7186 533.488 111.274 533.488 134.006V238.234C533.488 246.266 535.951 249.069 543.984 249.069H563.232C571.264 249.069 574.068 246.266 574.068 238.234V132.908C574.068 87.7842 550.274 62.5894 501.32 62.5894C475.062 62.6272 452.328 66.4538 432.398 74.5238Z" fill="#19093B"/>
<path d="M640.072 25.877C632.039 25.877 629.236 28.3396 629.236 36.3717V67.8558H605.1C597.067 67.8558 594.604 70.3184 594.604 78.3505V94.4525C594.604 102.485 597.067 105.288 605.1 105.288H629.236V177.008C629.236 206.75 635.184 227.36 647.423 238.575C659.32 249.751 679.97 255.018 709.335 253.957C717.746 253.616 720.512 251.153 720.512 242.78V226.678C720.512 218.267 717.708 215.843 709.335 215.843C693.951 215.843 683.456 213.38 678.189 208.151C672.581 202.923 669.778 192.049 669.778 175.606V105.288H709.676C717.708 105.288 720.512 102.485 720.512 94.4525V78.3505C720.512 70.3184 717.708 67.8558 709.676 67.8558H669.778V36.3717C669.778 28.3396 666.974 25.877 658.941 25.877H640.072Z" fill="#19093B"/>
<path d="M873.625 67.856C865.592 67.856 862.788 70.3186 862.788 78.3507V203.567C850.209 206.712 838.311 208.455 826.755 208.455C801.217 208.455 788.638 196.899 788.638 173.826V78.3507C788.638 70.3186 786.175 67.856 778.142 67.856H758.894C750.862 67.856 748.058 70.3186 748.058 78.3507V175.228C748.058 220.351 772.194 245.546 821.185 245.546C834.485 245.546 848.466 243.803 862.826 240.659V257.102C862.826 282.297 850.588 294.875 825.732 294.875C808.606 294.875 796.33 288.927 789.017 277.03C783.75 269.68 779.923 268.619 771.512 272.825L758.212 280.175C750.18 284.039 748.778 289.95 753.666 297.679C767.306 320.07 791.783 331.247 826.414 331.247C879.232 331.247 903.368 302.907 903.368 254.98V78.3507C903.368 70.3186 900.564 67.856 892.532 67.856H873.625Z" fill="#19093B"/>
<path d="M1066.29 67.856C1058.26 67.856 1055.46 70.3186 1055.46 78.3507V207.091C1055.46 210.235 1054.06 211.978 1051.59 213.039C1042.16 215.843 1031.66 217.245 1019.42 217.245C993.887 217.245 981.308 205.689 981.308 182.616V78.3507C981.308 70.3186 978.845 67.856 970.812 67.856H951.564C943.531 67.856 940.728 70.3186 940.728 78.3507V183.98C940.728 229.103 964.863 254.298 1013.85 254.298C1039.05 254.298 1061.79 250.093 1082.44 242.061C1093.61 237.514 1096.08 233.65 1096.08 222.473V78.3507C1096.08 70.3186 1093.27 67.856 1085.24 67.856H1066.29Z" fill="#19093B"/>
<path d="M48.8778 354.736C48.8778 368.035 41.8682 374.627 27.8869 374.627C21.7108 374.627 16.3684 373.68 11.8216 371.899C9.62401 370.952 9.35878 370.535 9.35878 368.338V321.396C16.3684 318.516 23.2264 317.001 29.8193 317.001C42.5881 317.001 48.9157 323.176 48.9157 335.679V354.736H48.8778ZM2.46284 279.531C0.833575 279.531 0 280.364 0 281.993V371.331C0 375.726 0.947245 376.824 5.34246 378.87C11.3669 381.598 19.0586 383 28.531 383C48.1579 383 58.0471 373.68 58.0471 354.85V335.376C58.0471 317.38 48.9915 308.476 30.9938 308.476C25.083 308.476 17.8082 309.84 9.32089 312.72V281.955C9.32089 280.326 8.48731 279.493 6.85805 279.493H2.46284V279.531Z" fill="#008ACB"/>
<path d="M137.654 310.561C136.025 310.561 135.191 311.394 135.191 313.023V367.77C135.191 369.551 134.357 370.915 132.728 371.597C127.651 373.642 121.74 374.628 114.882 374.628C102.113 374.628 95.672 368.3 95.672 355.836V313.023C95.672 311.243 95.2552 310.561 93.2092 310.561H88.9655C87.1847 310.561 86.5027 311.243 86.5027 313.023V356.252C86.5027 374.097 95.5583 383.001 113.67 383.001C123.407 383.001 132.046 381.485 139.321 378.454C143.565 376.673 144.55 375.158 144.55 370.915V313.023C144.55 311.394 143.716 310.561 142.087 310.561H137.654Z" fill="#008ACB"/>
<path d="M173.763 329.087C173.763 335.831 176.226 340.757 179.408 343.485C180.924 344.848 183.122 345.947 186.001 346.932C191.495 348.713 194.526 349.13 201.498 349.812C215.366 351.327 221.39 353.525 221.39 362.428C221.39 370.801 214.949 374.931 202.029 374.931C191.041 374.931 184.031 370.953 181.038 362.996C180.356 361.481 179.257 361.064 177.741 361.481L174.18 362.731C172.399 363.262 171.982 364.36 172.664 366.027C177.059 377.431 186.948 383.039 202.294 383.039C220.822 383.039 230.446 375.234 230.446 362.049C230.446 354.358 227.832 349.281 222.489 346.402C217.147 343.674 212.069 342.424 203.696 341.742C197.671 341.211 195.474 340.908 191.344 339.809C185.584 338.294 183.5 335.415 182.97 328.822C182.97 320.866 188.994 316.888 200.968 316.888C212.372 316.888 217.563 320.336 220.746 327.307C221.58 328.822 222.678 329.239 224.194 328.557L227.642 327.042C229.423 326.36 229.84 325.109 228.892 323.48C224.497 313.478 215.176 308.515 200.892 308.515C183.235 308.477 173.763 316.32 173.763 329.087Z" fill="#008ACB"/>
<path d="M258.977 310.56C257.347 310.56 256.514 311.393 256.514 313.022V378.643C256.514 380.272 257.347 381.105 258.977 381.105H263.372C265.001 381.105 265.835 380.272 265.835 378.643V313.022C265.835 311.393 265.001 310.56 263.372 310.56H258.977ZM260.757 285.289C256.931 285.289 255.68 286.539 255.68 290.366V291.313C255.68 295.14 256.931 296.39 260.757 296.39H261.591C265.418 296.39 266.668 295.14 266.668 291.313V290.366C266.668 286.539 265.418 285.289 261.591 285.289H260.757Z" fill="#008ACB"/>
<path d="M301.906 313.136C297.662 314.917 296.677 316.432 296.677 320.676V378.605C296.677 380.234 297.511 381.068 299.14 381.068H303.535C305.165 381.068 305.998 380.234 305.998 378.605V323.441C305.998 321.812 306.68 320.714 308.044 319.994C313.69 317.948 319.866 316.963 326.307 316.963C339.076 316.963 345.517 323.138 345.517 335.641V378.605C345.517 380.386 346.199 381.068 347.98 381.068H352.224C353.853 381.068 354.686 380.234 354.686 378.605V335.376C354.686 317.38 345.631 308.476 327.368 308.476C317.971 308.476 309.484 309.992 301.906 313.136Z" fill="#008ACB"/>
<path d="M434.369 341.135H391.97V336.323C391.97 323.82 399.396 316.432 413.112 316.432C426.98 316.432 434.406 323.858 434.406 336.323V341.135H434.369ZM382.763 355.304C382.763 372.467 392.652 383.038 412.544 383.038C426.677 383.038 436.415 378.112 441.909 368.224C443.007 366.443 442.742 365.193 440.961 364.246L438.082 362.73C436.566 361.897 435.202 362.162 434.103 363.677C429.86 371.217 422.699 375.081 412.544 375.081C399.245 375.081 391.97 368.224 391.97 356.289V348.333H439.446C442.174 348.333 443.576 347.083 443.576 344.507V336.967C443.576 319.804 433.005 308.552 413.112 308.552C393.334 308.552 382.763 319.274 382.763 337.497V355.304Z" fill="#008ACB"/>
<path d="M469.492 329.087C469.492 335.831 471.955 340.757 475.138 343.485C476.653 344.848 478.851 345.947 481.73 346.932C487.224 348.713 490.256 349.13 497.227 349.812C511.095 351.327 517.119 353.525 517.119 362.428C517.119 370.801 510.678 374.931 497.758 374.931C486.77 374.931 479.76 370.953 476.767 362.996C476.085 361.481 474.986 361.064 473.47 361.481L469.909 362.731C468.128 363.262 467.711 364.36 468.393 366.027C472.788 377.431 482.678 383.039 498.061 383.039C516.589 383.039 526.213 375.234 526.213 362.049C526.213 354.358 523.599 349.281 518.256 346.402C512.914 343.674 507.836 342.424 499.463 341.742C493.438 341.211 491.241 340.908 487.111 339.809C481.352 338.294 479.268 335.415 478.737 328.822C478.737 320.866 484.762 316.888 496.735 316.888C508.14 316.888 513.331 320.336 516.513 327.307C517.347 328.822 518.446 329.239 519.961 328.557L523.409 327.042C525.19 326.36 525.607 325.109 524.66 323.48C520.264 313.478 510.943 308.515 496.659 308.515C478.964 308.477 469.492 316.32 469.492 329.087Z" fill="#008ACB"/>
<path d="M550.615 329.087C550.615 335.831 553.077 340.757 556.26 343.485C557.776 344.848 559.973 345.947 562.853 346.932C568.347 348.713 571.378 349.13 578.35 349.812C592.218 351.327 598.242 353.525 598.242 362.428C598.242 370.801 591.801 374.931 578.88 374.931C567.892 374.931 560.883 370.953 557.889 362.996C557.207 361.481 556.109 361.064 554.593 361.481L551.031 362.731C549.251 363.262 548.834 364.36 549.516 366.027C553.911 377.431 563.8 383.039 579.183 383.039C597.712 383.039 607.336 375.234 607.336 362.049C607.336 354.358 604.721 349.281 599.379 346.402C594.036 343.674 588.959 342.424 580.585 341.742C574.561 341.211 572.363 340.908 568.233 339.809C562.474 338.294 560.428 335.415 559.86 328.822C559.86 320.866 565.884 316.888 577.857 316.888C589.262 316.888 594.453 320.336 597.636 327.307C598.469 328.822 599.568 329.239 601.084 328.557L604.532 327.042C606.313 326.36 606.729 325.109 605.782 323.48C601.387 313.478 592.066 308.515 577.782 308.515C560.087 308.477 550.615 316.32 550.615 329.087Z" fill="#008ACB"/>
</svg>
